<svg width="52" height="50" viewBox="0 0 52 50" fill="none" xmlns="http://www.w3.org/2000/svg">
<path d="M9.88696 26.8488L15.5807 26.5508" stroke="white" stroke-width="2" stroke-linecap="round" stroke-linejoin="round"/>
<path d="M9.85962 33.5732L15.9268 33.4807" stroke="white" stroke-width="2" stroke-linecap="round" stroke-linejoin="round"/>
<path d="M10.4487 40.4043H15.793" stroke="white" stroke-width="2" stroke-linecap="round" stroke-linejoin="round"/>
<path d="M16.2589 42.6456C16.2863 42.9197 16.324 43.1869 16.3754 43.4473C16.4165 43.7252 16.5226 43.9895 16.6851 44.2187C16.8476 44.4479 17.0619 44.6355 17.3106 44.7662C17.667 44.8941 18.0466 44.9444 18.424 44.9135C25.423 44.8416 32.4186 45.0814 39.4141 45.0814C40.2774 45.0608 41.2572 44.9889 41.8122 44.314C42.1959 43.8344 42.2473 43.18 42.2781 42.5668C42.6161 36.2427 42.8548 29.9141 42.9941 23.5809C43.0283 21.9399 42.9496 20.0557 41.6786 19.0211C40.7125 18.2366 39.3559 18.2023 38.1089 18.2092C32.0588 18.2366 25.7759 18.2811 19.7464 17.9796C16.2692 17.8152 16.1013 19.5281 16.1013 22.1626C16.1013 25.4811 16.1013 28.8007 16.1013 32.1215C16.1013 34.0125 16.1767 35.8899 16.2486 37.7981C16.3 39.3191 16.1013 41.08 16.2589 42.6456Z" stroke="white" stroke-width="2" stroke-linecap="round" stroke-linejoin="round"/>
<path d="M30.1782 36.9466C30.4838 35.3755 30.5886 33.772 30.49 32.1745C31.7952 32.0922 32.8161 30.7596 32.7647 29.4338C32.7134 28.108 31.737 26.9569 30.5585 26.4225C29.3335 25.9406 27.982 25.8851 26.7216 26.2649C25.7349 26.5218 24.6935 27.0665 24.4023 28.0463C24.1454 28.8994 24.5667 29.8415 25.2176 30.4444C25.9065 31.0134 26.6954 31.449 27.5438 31.7291C27.5895 33.6303 27.4507 35.5314 27.1293 37.4057C27.7493 37.3406 29.5479 37.0323 30.1782 36.9466Z" stroke="white" stroke-width="2" stroke-linecap="round" stroke-linejoin="round"/>
<path d="M24.6454 17.9626C24.4124 15.3692 24.3028 12.2552 25.9335 10.0044C27.7115 7.52066 32.0554 6.64365 33.8951 9.5556C35.2929 11.7721 35.3579 15.2973 35.1216 17.7776" stroke="white" stroke-width="2" stroke-linecap="round" stroke-linejoin="round"/>
<path d="M21.6136 17.8308C21.271 14.4392 21.1134 10.3625 23.5697 7.41625C26.283 4.16514 32.888 3.01064 35.6972 6.82701C37.828 9.72526 37.9205 14.3433 37.5643 17.6081" stroke="white" stroke-width="2" stroke-linecap="round" stroke-linejoin="round"/>
<path d="M5.03589 22.4092L21.0516 22.207" stroke="white" stroke-width="2" stroke-linecap="round" stroke-linejoin="round"/>
<path d="M5.01538 30.0556L21.0346 29.8535" stroke="white" stroke-width="2" stroke-linecap="round" stroke-linejoin="round"/>
<path d="M3.80957 26.7732L6.85171 26.6602" stroke="white" stroke-width="2" stroke-linecap="round" stroke-linejoin="round"/>
<path d="M5.96777 36.876L21.7437 36.4512" stroke="white" stroke-width="2" stroke-linecap="round" stroke-linejoin="round"/>
<path d="M3.79248 33.2266H6.83804" stroke="white" stroke-width="2" stroke-linecap="round" stroke-linejoin="round"/>
<path d="M3.28882 40.1404H7.31074" stroke="white" stroke-width="2" stroke-linecap="round" stroke-linejoin="round"/>
</svg>
