<svg width="44" height="40" viewBox="0 0 44 40" fill="none" xmlns="http://www.w3.org/2000/svg">
<path d="M32.7074 20.305C32.7031 20.3695 32.7012 20.4325 32.7016 20.494C32.7124 22.1742 34.924 22.7123 36.3913 21.8938C36.9103 21.6043 37.3505 21.2883 37.6281 21.1074C38.2928 20.674 40.8089 18.6258 41.1479 17.9899C41.487 17.3539 41.0889 16.5417 40.3472 16.645C39.6055 16.7482 32.8156 18.6787 32.7074 20.305Z" fill="url(#paint0_linear_326_2221)"/>
<path d="M32.7074 20.305C32.7031 20.3695 32.7012 20.4325 32.7016 20.494C32.7124 22.1742 34.924 22.7123 36.3913 21.8938C36.9103 21.6043 37.3505 21.2883 37.6281 21.1074C38.2928 20.674 40.8089 18.6258 41.1479 17.9899C41.487 17.3539 41.0889 16.5417 40.3472 16.645C39.6055 16.7482 32.8156 18.6787 32.7074 20.305Z" fill="url(#paint1_linear_326_2221)"/>
<path d="M32.6507 20.0614C32.6464 20.1258 32.6446 20.1888 32.645 20.2504C32.6558 21.9305 34.8673 22.4687 36.3347 21.6501C36.8537 21.3606 37.2939 21.0447 37.5714 20.8638C38.2362 20.4304 40.7522 18.3821 41.0913 17.7462C41.4304 17.1103 41.0323 16.2981 40.2906 16.4013C39.5489 16.5046 32.759 18.435 32.6507 20.0614Z" fill="url(#paint2_linear_326_2221)"/>
<mask id="mask0_326_2221" style="mask-type:alpha" maskUnits="userSpaceOnUse" x="32" y="16" width="10" height="7">
<path d="M32.6517 20.0609C32.6474 20.1253 32.6455 20.1883 32.6459 20.2499C32.6568 21.93 34.8683 22.4682 36.3357 21.6497C36.8546 21.3601 37.2949 21.0442 37.5724 20.8633C38.2372 20.4299 40.7532 18.3816 41.0923 17.7457C41.4314 17.1098 41.0332 16.2976 40.2916 16.4008C39.5499 16.5041 32.76 18.4345 32.6517 20.0609Z" fill="url(#paint3_linear_326_2221)"/>
</mask>
<g mask="url(#mask0_326_2221)">
<g opacity="0.2" filter="url(#filter0_f_326_2221)">
<ellipse cx="38.3215" cy="19.6222" rx="1.22034" ry="4.14387" transform="rotate(-126.572 38.3215 19.6222)" fill="#6489DE"/>
</g>
</g>
<path d="M7.0888 17.1522C7.15058 17.1334 7.21151 17.1173 7.27155 17.1037C8.91032 16.7329 9.93638 18.7646 9.47225 20.3794C9.30809 20.9506 9.10032 21.451 8.9871 21.7624C8.71591 22.5082 7.29219 25.4234 6.74981 25.898C6.20744 26.3726 5.32609 26.1692 5.25829 25.4234C5.1905 24.6776 5.52948 17.6268 7.0888 17.1522Z" fill="url(#paint4_linear_326_2221)"/>
<path d="M7.0888 17.1522C7.15058 17.1334 7.21151 17.1173 7.27155 17.1037C8.91032 16.7329 9.93638 18.7646 9.47225 20.3794C9.30809 20.9506 9.10032 21.451 8.9871 21.7624C8.71591 22.5082 7.29219 25.4234 6.74981 25.898C6.20744 26.3726 5.32609 26.1692 5.25829 25.4234C5.1905 24.6776 5.52948 17.6268 7.0888 17.1522Z" fill="url(#paint5_linear_326_2221)"/>
<path d="M6.8388 17.1525C6.90058 17.1337 6.96151 17.1175 7.02155 17.104C8.66032 16.7331 9.68638 18.7648 9.22225 20.3797C9.05809 20.9508 8.85032 21.4513 8.7371 21.7626C8.46591 22.5084 7.04219 25.4237 6.49981 25.8982C5.95744 26.3728 5.07609 26.1694 5.00829 25.4237C4.9405 24.6779 5.27948 17.627 6.8388 17.1525Z" fill="url(#paint6_linear_326_2221)"/>
<mask id="mask1_326_2221" style="mask-type:alpha" maskUnits="userSpaceOnUse" x="5" y="17" width="5" height="10">
<path d="M6.8388 17.1525C6.90058 17.1337 6.96151 17.1175 7.02155 17.104C8.66032 16.7331 9.68638 18.7648 9.22225 20.3797C9.05809 20.9508 8.85032 21.4513 8.7371 21.7626C8.46591 22.5084 7.04219 25.4237 6.49981 25.8982C5.95744 26.3728 5.07609 26.1694 5.00829 25.4237C4.9405 24.6779 5.27948 17.627 6.8388 17.1525Z" fill="url(#paint7_linear_326_2221)"/>
</mask>
<g mask="url(#mask1_326_2221)">
<g opacity="0.2" filter="url(#filter1_f_326_2221)">
<ellipse rx="1.22034" ry="4.14387" transform="matrix(-0.917382 -0.398007 -0.398007 0.917382 7.6975 22.7741)" fill="#6489DE"/>
</g>
</g>
<rect x="33.8809" y="1.89844" width="0.813557" height="6.91524" rx="0.406779" fill="url(#paint8_linear_326_2221)"/>
<mask id="mask2_326_2221" style="mask-type:alpha" maskUnits="userSpaceOnUse" x="32" y="7" width="4" height="5">
<path fill-rule="evenodd" clip-rule="evenodd" d="M35.6432 7.05127H32.7954V11.3902H35.2488C35.2702 11.1907 35.3083 10.9961 35.3719 10.8477C35.5752 10.3731 36.1176 8.54276 35.6432 7.05127Z" fill="white"/>
</mask>
<g mask="url(#mask2_326_2221)">
<rect x="30.7622" y="6.77979" width="7.18642" height="4.61016" fill="url(#paint9_linear_326_2221)"/>
<rect x="34.6948" y="7.05078" width="1.76271" height="4.33897" rx="0.881353" fill="url(#paint10_linear_326_2221)"/>
</g>
<path fill-rule="evenodd" clip-rule="evenodd" d="M29.2204 16.4066C31.7499 16.4066 34.1522 14.8006 34.1522 12.2712C34.1522 5.49398 28.6582 0 21.881 0C15.1038 0 9.60986 5.49398 9.60986 12.2712C9.60986 14.8006 12.0121 16.4066 14.5416 16.4066H29.2204Z" fill="url(#paint11_linear_326_2221)"/>
<path fill-rule="evenodd" clip-rule="evenodd" d="M27.5684 16.9486C31.0213 16.9486 34.1522 19.3062 34.1522 22.7591C34.1522 32.2807 28.6582 39.9995 21.881 39.9995C15.1038 39.9995 9.60986 32.2807 9.60986 22.7591C9.60986 19.3062 12.7408 16.9486 16.1936 16.9486H27.5684Z" fill="url(#paint12_linear_326_2221)"/>
<mask id="mask3_326_2221" style="mask-type:alpha" maskUnits="userSpaceOnUse" x="9" y="16" width="26" height="24">
<path fill-rule="evenodd" clip-rule="evenodd" d="M27.567 16.9491C31.0198 16.9491 34.1507 19.3068 34.1507 22.7595C34.1507 32.2812 28.6567 40 21.8796 40C15.1024 40 9.6084 32.2812 9.6084 22.7595C9.6084 19.3068 12.7393 16.9491 16.1921 16.9491H27.567Z" fill="url(#paint13_linear_326_2221)"/>
</mask>
<g mask="url(#mask3_326_2221)">
<g opacity="0.2" filter="url(#filter2_f_326_2221)">
<path d="M38.5361 15.3226C38.5361 14.3326 37.9963 13.6363 37.5741 13.2469C37.1487 12.8547 36.6385 12.5747 36.174 12.3675C35.2309 11.9468 33.9963 11.6185 32.6321 11.3611C29.8694 10.8399 26.141 10.5308 22.0833 10.5308C18.0256 10.5308 14.2972 10.8399 11.5345 11.3611C10.1703 11.6185 8.93567 11.9468 7.99259 12.3675C7.52804 12.5747 7.01789 12.8547 6.59253 13.2469C6.17026 13.6363 5.63052 14.3326 5.63052 15.3226C5.63052 16.3125 6.17026 17.0089 6.59253 17.3982C7.01789 17.7904 7.52804 18.0704 7.99259 18.2776C8.93567 18.6983 10.1703 19.0266 11.5345 19.284C14.2972 19.8053 18.0256 20.1143 22.0833 20.1143C26.141 20.1143 29.8694 19.8053 32.6321 19.284C33.9963 19.0266 35.2309 18.6983 36.174 18.2776C36.6385 18.0704 37.1487 17.7904 37.5741 17.3982C37.9963 17.0089 38.5361 16.3125 38.5361 15.3226Z" stroke="#6A84A4" stroke-width="4.15985"/>
</g>
<g opacity="0.1" filter="url(#filter3_f_326_2221)">
<path d="M21.4734 34.5764C14.4716 34.5764 8.79551 38.2492 8.79551 42.7798C8.79551 47.3104 14.4716 50.9832 21.4734 50.9832C28.4753 50.9832 34.1514 47.3104 34.1514 42.7798C34.1514 38.2492 28.4753 34.5764 21.4734 34.5764Z" fill="#6489DE"/>
</g>
<g opacity="0.05" filter="url(#filter4_f_326_2221)">
<path d="M21.8799 25.3562C16.226 25.3562 11.6427 29.029 11.6427 33.5596C11.6427 38.0902 16.226 41.7629 21.8799 41.7629C27.5338 41.7629 32.1172 38.0902 32.1172 33.5596C32.1172 29.029 27.5338 25.3562 21.8799 25.3562Z" fill="#6489DE"/>
</g>
</g>
<g filter="url(#filter5_i_326_2221)">
<path d="M15.3493 5.86045C15.5222 4.88549 16.3335 4.15155 17.3219 4.09218C18.5625 4.01766 20.2529 3.93304 21.5415 3.93237C22.8987 3.93167 24.6965 4.0236 25.9626 4.10061C26.8873 4.15685 27.6633 4.80692 27.8948 5.70391C28.248 7.07278 27.2145 8.40694 25.8008 8.40694H17.4837C16.135 8.40694 15.1136 7.18845 15.3493 5.86045Z" fill="#362DA8"/>
</g>
<path d="M15.8471 6.23865C16.0095 5.37293 16.7654 4.74561 17.6462 4.74561H25.6537C26.4792 4.74561 27.2025 5.29801 27.4197 6.09431C27.7374 7.2588 26.8608 8.40661 25.6537 8.40661H17.6462C16.5 8.40661 15.6358 7.3652 15.8471 6.23865Z" fill="#192162"/>
<circle cx="19.1017" cy="6.50818" r="1.22034" fill="#574CEC"/>
<circle cx="24.3893" cy="6.50842" r="1.22034" fill="#574CEC"/>
<mask id="mask4_326_2221" style="mask-type:alpha" maskUnits="userSpaceOnUse" x="9" y="1" width="26" height="16">
<rect x="9.60986" y="1.35596" width="24.4067" height="15.0508" rx="7.5254" fill="white"/>
</mask>
<g mask="url(#mask4_326_2221)">
<g opacity="0.3" filter="url(#filter6_f_326_2221)">
<circle cx="19.1009" cy="6.50861" r="1.49152" fill="#1300FF"/>
</g>
<g opacity="0.3" filter="url(#filter7_f_326_2221)">
<circle cx="24.3895" cy="6.50861" r="1.49152" fill="#1300FF"/>
</g>
<g opacity="0.3" filter="url(#filter8_f_326_2221)">
<path d="M38.537 16.8138C38.537 15.8238 37.9973 15.1275 37.575 14.7381C37.1497 14.3459 36.6395 14.0659 36.175 13.8587C35.2319 13.438 33.9973 13.1097 32.633 12.8523C29.8704 12.3311 26.1419 12.022 22.0843 12.022C18.0266 12.022 14.2981 12.3311 11.5355 12.8523C10.1713 13.1097 8.93665 13.438 7.99357 13.8587C7.52902 14.0659 7.01886 14.3459 6.5935 14.7381C6.17123 15.1275 5.6315 15.8238 5.6315 16.8138C5.6315 17.8037 6.17123 18.5001 6.5935 18.8894C7.01886 19.2816 7.52902 19.5616 7.99357 19.7689C8.93665 20.1896 10.1713 20.5178 11.5355 20.7752C14.2981 21.2965 18.0266 21.6056 22.0843 21.6056C26.1419 21.6056 29.8704 21.2965 32.633 20.7752C33.9973 20.5178 35.2319 20.1895 36.175 19.7689C36.6395 19.5616 37.1497 19.2816 37.575 18.8894C37.9973 18.5001 38.537 17.8037 38.537 16.8138Z" stroke="#6A84A4" stroke-width="4.15985"/>
</g>
</g>
<g opacity="0.3" filter="url(#filter9_f_326_2221)">
<ellipse cx="22.0019" cy="16.4064" rx="1.49152" ry="9.35591" transform="rotate(-90 22.0019 16.4064)" fill="#6A84A4"/>
</g>
<g opacity="0.4" filter="url(#filter10_f_326_2221)">
<ellipse cx="22.084" cy="16.4065" rx="0.677964" ry="6.64405" transform="rotate(-90 22.084 16.4065)" fill="#6A84A4"/>
</g>
<circle cx="22.017" cy="25.6945" r="3.18643" fill="url(#paint14_linear_326_2221)"/>
<circle cx="22.0176" cy="25.6944" r="1.95075" fill="#8279FF" stroke="url(#paint15_linear_326_2221)" stroke-width="1.38662"/>
<g filter="url(#filter11_f_326_2221)">
<circle cx="22.0168" cy="25.6947" r="1.81516" stroke="url(#paint16_linear_326_2221)" stroke-width="1.38662"/>
</g>
<rect x="21.5557" y="23.9128" width="0.993589" height="3.40229" rx="0.496794" fill="#9D96FF"/>
<rect x="23.7534" y="25.1172" width="0.993589" height="3.40229" rx="0.496794" transform="rotate(90 23.7534 25.1172)" fill="#9D96FF"/>
<g opacity="0.3" filter="url(#filter12_f_326_2221)">
<path fill-rule="evenodd" clip-rule="evenodd" d="M22.0425 24.0881C21.796 24.0881 21.5962 24.2879 21.5962 24.5344V25.1696H20.9619C20.7154 25.1696 20.5156 25.3694 20.5156 25.6159C20.5156 25.8623 20.7154 26.0621 20.9619 26.0621H21.5962V26.6979C21.5962 26.9444 21.796 27.1442 22.0425 27.1442C22.2889 27.1442 22.4887 26.9444 22.4887 26.6979V26.0621H23.1254C23.3719 26.0621 23.5717 25.8623 23.5717 25.6159C23.5717 25.3694 23.3719 25.1696 23.1254 25.1696H22.4887V24.5344C22.4887 24.2879 22.2889 24.0881 22.0425 24.0881Z" fill="#FCFCFA"/>
</g>
<g opacity="0.3" filter="url(#filter13_f_326_2221)">
<path fill-rule="evenodd" clip-rule="evenodd" d="M22.0255 24.5208C21.8209 24.5208 21.6551 24.6866 21.6551 24.8911C21.6551 25.1265 21.4642 25.3174 21.2288 25.3174H21.0855C20.904 25.3174 20.7568 25.4645 20.7568 25.646C20.7568 25.8275 20.904 25.9746 21.0855 25.9746H21.2287C21.4642 25.9746 21.6551 26.1655 21.6551 26.401C21.6551 26.6055 21.8209 26.7714 22.0255 26.7714C22.23 26.7714 22.3958 26.6055 22.3958 26.401C22.3958 26.1655 22.5867 25.9746 22.8222 25.9746H22.9649C23.1464 25.9746 23.2935 25.8275 23.2935 25.646C23.2935 25.4645 23.1464 25.3174 22.9649 25.3174H22.8221C22.5867 25.3174 22.3958 25.1265 22.3958 24.8911C22.3958 24.6866 22.23 24.5208 22.0255 24.5208Z" fill="#FCFCFA"/>
</g>
<defs>
<filter id="filter0_f_326_2221" x="29.3681" y="11.4186" width="17.9069" height="16.4071" filterUnits="userSpaceOnUse" color-interpolation-filters="sRGB">
<feFlood flood-opacity="0" result="BackgroundImageFix"/>
<feBlend mode="normal" in="SourceGraphic" in2="BackgroundImageFix" result="shape"/>
<feGaussianBlur stdDeviation="2.77324" result="effect1_foregroundBlur_326_2221"/>
</filter>
<filter id="filter1_f_326_2221" x="0.157631" y="13.3947" width="15.0798" height="18.7587" filterUnits="userSpaceOnUse" color-interpolation-filters="sRGB">
<feFlood flood-opacity="0" result="BackgroundImageFix"/>
<feBlend mode="normal" in="SourceGraphic" in2="BackgroundImageFix" result="shape"/>
<feGaussianBlur stdDeviation="2.77324" result="effect1_foregroundBlur_326_2221"/>
</filter>
<filter id="filter2_f_326_2221" x="-6.15554" y="-1.2554" width="56.4781" height="33.1561" filterUnits="userSpaceOnUse" color-interpolation-filters="sRGB">
<feFlood flood-opacity="0" result="BackgroundImageFix"/>
<feBlend mode="normal" in="SourceGraphic" in2="BackgroundImageFix" result="shape"/>
<feGaussianBlur stdDeviation="4.85316" result="effect1_foregroundBlur_326_2221"/>
</filter>
<filter id="filter3_f_326_2221" x="-23.0968" y="2.68421" width="89.1404" height="80.1911" filterUnits="userSpaceOnUse" color-interpolation-filters="sRGB">
<feFlood flood-opacity="0" result="BackgroundImageFix"/>
<feBlend mode="normal" in="SourceGraphic" in2="BackgroundImageFix" result="shape"/>
<feGaussianBlur stdDeviation="15.9461" result="effect1_foregroundBlur_326_2221"/>
</filter>
<filter id="filter4_f_326_2221" x="-20.2496" y="-6.536" width="84.259" height="80.1911" filterUnits="userSpaceOnUse" color-interpolation-filters="sRGB">
<feFlood flood-opacity="0" result="BackgroundImageFix"/>
<feBlend mode="normal" in="SourceGraphic" in2="BackgroundImageFix" result="shape"/>
<feGaussianBlur stdDeviation="15.9461" result="effect1_foregroundBlur_326_2221"/>
</filter>
<filter id="filter5_i_326_2221" x="15.3154" y="3.93237" width="12.6489" height="5.86123" filterUnits="userSpaceOnUse" color-interpolation-filters="sRGB">
<feFlood flood-opacity="0" result="BackgroundImageFix"/>
<feBlend mode="normal" in="SourceGraphic" in2="BackgroundImageFix" result="shape"/>
<feColorMatrix in="SourceAlpha" type="matrix" values="0 0 0 0 0 0 0 0 0 0 0 0 0 0 0 0 0 0 127 0" result="hardAlpha"/>
<feOffset dy="1.38662"/>
<feGaussianBlur stdDeviation="1.38662"/>
<feComposite in2="hardAlpha" operator="arithmetic" k2="-1" k3="1"/>
<feColorMatrix type="matrix" values="0 0 0 0 0 0 0 0 0 0 0 0 0 0 0 0 0 0 0.25 0"/>
<feBlend mode="normal" in2="shape" result="effect1_innerShadow_326_2221"/>
</filter>
<filter id="filter6_f_326_2221" x="14.8361" y="2.24385" width="8.52938" height="8.52962" filterUnits="userSpaceOnUse" color-interpolation-filters="sRGB">
<feFlood flood-opacity="0" result="BackgroundImageFix"/>
<feBlend mode="normal" in="SourceGraphic" in2="BackgroundImageFix" result="shape"/>
<feGaussianBlur stdDeviation="1.38662" result="effect1_foregroundBlur_326_2221"/>
</filter>
<filter id="filter7_f_326_2221" x="20.1247" y="2.24385" width="8.52938" height="8.52962" filterUnits="userSpaceOnUse" color-interpolation-filters="sRGB">
<feFlood flood-opacity="0" result="BackgroundImageFix"/>
<feBlend mode="normal" in="SourceGraphic" in2="BackgroundImageFix" result="shape"/>
<feGaussianBlur stdDeviation="1.38662" result="effect1_foregroundBlur_326_2221"/>
</filter>
<filter id="filter8_f_326_2221" x="-6.15457" y="0.235815" width="56.4781" height="33.1561" filterUnits="userSpaceOnUse" color-interpolation-filters="sRGB">
<feFlood flood-opacity="0" result="BackgroundImageFix"/>
<feBlend mode="normal" in="SourceGraphic" in2="BackgroundImageFix" result="shape"/>
<feGaussianBlur stdDeviation="4.85316" result="effect1_foregroundBlur_326_2221"/>
</filter>
<filter id="filter9_f_326_2221" x="2.93967" y="5.20847" width="38.1246" height="22.3958" filterUnits="userSpaceOnUse" color-interpolation-filters="sRGB">
<feFlood flood-opacity="0" result="BackgroundImageFix"/>
<feBlend mode="normal" in="SourceGraphic" in2="BackgroundImageFix" result="shape"/>
<feGaussianBlur stdDeviation="4.85316" result="effect1_foregroundBlur_326_2221"/>
</filter>
<filter id="filter10_f_326_2221" x="0.187149" y="0.475723" width="43.7937" height="31.8615" filterUnits="userSpaceOnUse" color-interpolation-filters="sRGB">
<feFlood flood-opacity="0" result="BackgroundImageFix"/>
<feBlend mode="normal" in="SourceGraphic" in2="BackgroundImageFix" result="shape"/>
<feGaussianBlur stdDeviation="7.6264" result="effect1_foregroundBlur_326_2221"/>
</filter>
<filter id="filter11_f_326_2221" x="18.1217" y="21.7997" width="7.79032" height="7.79008" filterUnits="userSpaceOnUse" color-interpolation-filters="sRGB">
<feFlood flood-opacity="0" result="BackgroundImageFix"/>
<feBlend mode="normal" in="SourceGraphic" in2="BackgroundImageFix" result="shape"/>
<feGaussianBlur stdDeviation="0.693309" result="effect1_foregroundBlur_326_2221"/>
</filter>
<filter id="filter12_f_326_2221" x="19.6689" y="23.2414" width="4.74961" height="4.74961" filterUnits="userSpaceOnUse" color-interpolation-filters="sRGB">
<feFlood flood-opacity="0" result="BackgroundImageFix"/>
<feBlend mode="normal" in="SourceGraphic" in2="BackgroundImageFix" result="shape"/>
<feGaussianBlur stdDeviation="0.423365" result="effect1_foregroundBlur_326_2221"/>
</filter>
<filter id="filter13_f_326_2221" x="17.6008" y="21.3648" width="8.84861" height="8.56273" filterUnits="userSpaceOnUse" color-interpolation-filters="sRGB">
<feFlood flood-opacity="0" result="BackgroundImageFix"/>
<feBlend mode="normal" in="SourceGraphic" in2="BackgroundImageFix" result="shape"/>
<feGaussianBlur stdDeviation="1.578" result="effect1_foregroundBlur_326_2221"/>
</filter>
<linearGradient id="paint0_linear_326_2221" x1="36.5346" y1="24.9286" x2="35.0761" y2="19.0805" gradientUnits="userSpaceOnUse">
<stop offset="0.0176794" stop-color="#8FA7E4"/>
<stop offset="1" stop-color="white"/>
</linearGradient>
<linearGradient id="paint1_linear_326_2221" x1="37.2857" y1="21.9314" x2="35.3682" y2="13.9799" gradientUnits="userSpaceOnUse">
<stop stop-color="#819BE0"/>
<stop offset="0.571374" stop-color="white"/>
<stop offset="1" stop-color="white" stop-opacity="0"/>
</linearGradient>
<linearGradient id="paint2_linear_326_2221" x1="36.4779" y1="24.685" x2="35.0195" y2="18.8368" gradientUnits="userSpaceOnUse">
<stop offset="0.0176794" stop-color="#8FA7E4"/>
<stop offset="1" stop-color="white"/>
</linearGradient>
<linearGradient id="paint3_linear_326_2221" x1="36.4789" y1="24.6845" x2="35.0205" y2="18.8363" gradientUnits="userSpaceOnUse">
<stop offset="0.0176794" stop-color="#8FA7E4"/>
<stop offset="1" stop-color="white"/>
</linearGradient>
<linearGradient id="paint4_linear_326_2221" x1="12.4604" y1="19.8301" x2="6.43385" y2="19.7371" gradientUnits="userSpaceOnUse">
<stop offset="0.0176794" stop-color="#8FA7E4"/>
<stop offset="1" stop-color="white"/>
</linearGradient>
<linearGradient id="paint5_linear_326_2221" x1="9.71191" y1="21.2419" x2="1.53266" y2="21.1792" gradientUnits="userSpaceOnUse">
<stop stop-color="#819BE0"/>
<stop offset="0.571374" stop-color="white"/>
<stop offset="1" stop-color="white" stop-opacity="0"/>
</linearGradient>
<linearGradient id="paint6_linear_326_2221" x1="12.2104" y1="19.8304" x2="6.18385" y2="19.7374" gradientUnits="userSpaceOnUse">
<stop offset="0.0176794" stop-color="#8FA7E4"/>
<stop offset="1" stop-color="white"/>
</linearGradient>
<linearGradient id="paint7_linear_326_2221" x1="12.2104" y1="19.8304" x2="6.18385" y2="19.7374" gradientUnits="userSpaceOnUse">
<stop offset="0.0176794" stop-color="#8FA7E4"/>
<stop offset="1" stop-color="white"/>
</linearGradient>
<linearGradient id="paint8_linear_326_2221" x1="33.8809" y1="5.08487" x2="35.3046" y2="5.08487" gradientUnits="userSpaceOnUse">
<stop stop-color="#819BE0"/>
<stop offset="0.589912" stop-color="white"/>
<stop offset="1" stop-color="white" stop-opacity="0"/>
</linearGradient>
<linearGradient id="paint9_linear_326_2221" x1="35.1365" y1="11.2543" x2="34.9681" y2="4.53734" gradientUnits="userSpaceOnUse">
<stop stop-color="#819BE0"/>
<stop offset="0.571374" stop-color="white"/>
<stop offset="1" stop-color="white" stop-opacity="0"/>
</linearGradient>
<linearGradient id="paint10_linear_326_2221" x1="34.6948" y1="9.05011" x2="37.9263" y2="9.02957" gradientUnits="userSpaceOnUse">
<stop stop-color="#819BE0"/>
<stop offset="0.571374" stop-color="white"/>
<stop offset="1" stop-color="white" stop-opacity="0"/>
</linearGradient>
<linearGradient id="paint11_linear_326_2221" x1="-5.50874" y1="5.0169" x2="27.5759" y2="3.45758" gradientUnits="userSpaceOnUse">
<stop offset="0.0176794" stop-color="#8FA7E4"/>
<stop offset="1" stop-color="white"/>
</linearGradient>
<linearGradient id="paint12_linear_326_2221" x1="-5.50874" y1="32.9509" x2="27.6121" y2="34.062" gradientUnits="userSpaceOnUse">
<stop offset="0.0176794" stop-color="#8FA7E4"/>
<stop offset="1" stop-color="white"/>
</linearGradient>
<linearGradient id="paint13_linear_326_2221" x1="-5.5102" y1="32.9514" x2="27.6107" y2="34.0625" gradientUnits="userSpaceOnUse">
<stop offset="0.0176794" stop-color="#8FA7E4"/>
<stop offset="1" stop-color="white"/>
</linearGradient>
<linearGradient id="paint14_linear_326_2221" x1="18.8306" y1="25.4446" x2="29.9831" y2="25.4446" gradientUnits="userSpaceOnUse">
<stop stop-color="#819BE0"/>
<stop offset="0.589912" stop-color="white"/>
<stop offset="1" stop-color="white" stop-opacity="0"/>
</linearGradient>
<linearGradient id="paint15_linear_326_2221" x1="24.6617" y1="26.0333" x2="19.3735" y2="25.7621" gradientUnits="userSpaceOnUse">
<stop stop-color="#6157EB"/>
<stop offset="1" stop-opacity="0"/>
</linearGradient>
<linearGradient id="paint16_linear_326_2221" x1="24.5252" y1="26.0163" x2="19.5083" y2="25.7591" gradientUnits="userSpaceOnUse">
<stop stop-color="#6157EB"/>
<stop offset="1" stop-opacity="0"/>
</linearGradient>
</defs>
</svg>
