<svg width="52" height="50" viewBox="0 0 52 50" fill="none" xmlns="http://www.w3.org/2000/svg">
<path d="M6.28687 11.9007L15.612 6.26518C16.3582 5.74983 17.1951 5.3802 18.0786 5.17577C18.9693 5.02503 19.9902 5.28539 20.4972 6.03222" stroke="white" stroke-width="2" stroke-linecap="round" stroke-linejoin="round"/>
<path d="M25.6873 6.66963C26.2834 5.42948 28.0237 5.17597 29.3015 5.68985C30.5793 6.20372 31.5523 7.24517 32.6348 8.08793C34.6803 9.67558 37.1642 10.5964 39.7503 10.7258" stroke="white" stroke-width="2" stroke-linecap="round" stroke-linejoin="round"/>
<path d="M6.13965 12.0449C10.9358 13.0727 14.1869 17.9579 18.9899 18.8623" stroke="white" stroke-width="2" stroke-linecap="round" stroke-linejoin="round"/>
<path d="M25.0261 19.2663C27.8387 19.7631 30.6102 18.2386 32.8233 16.4366C35.0364 14.6346 37.0302 12.4695 39.6339 11.3047" stroke="white" stroke-width="2" stroke-linecap="round" stroke-linejoin="round"/>
<path d="M7.08838 12.0586C11.172 12.2345 15.2578 12.2721 19.346 12.1716" stroke="white" stroke-width="2" stroke-linecap="round" stroke-linejoin="round"/>
<path d="M25.4304 12.2395L39.1337 11.4824" stroke="white" stroke-width="2" stroke-linecap="round" stroke-linejoin="round"/>
<path d="M40.9015 35.8349C41.0317 32.0973 41.1516 28.2981 40.1341 24.6838C39.9183 23.9096 39.4901 23.0223 38.6919 22.9435C38.0547 22.8852 37.5065 23.3923 37.1571 23.9267C36.3726 25.1257 35.9375 26.3248 36.3075 27.6951C36.3766 25.8827 36.1698 24.0703 35.6943 22.32C35.5998 21.8117 35.3524 21.3443 34.9851 20.9805C34.2999 20.4289 33.2927 20.6379 32.5459 21.0901C30.7439 22.1555 29.5928 24.1733 29.9937 26.2288C30.0926 24.4932 30.0042 22.752 29.7299 21.0353C29.634 20.4255 29.4832 19.7712 29.0036 19.384C28.2088 18.7503 26.9892 19.2299 26.2903 19.9699C25.5126 20.848 25.0005 21.9292 24.8138 23.0874C24.6016 24.1128 24.4982 25.1577 24.5055 26.2049L25.4031 8.8873C25.4923 8.02766 25.4449 7.15931 25.2626 6.3145C25.1674 5.89228 24.9747 5.49822 24.6999 5.16389C24.425 4.82955 24.0757 4.56423 23.6799 4.38918C22.498 3.95752 21.1516 4.73176 20.5144 5.81775C19.8772 6.90374 19.7813 8.21583 19.7059 9.45941C19.3291 15.884 19.1543 22.3143 19.1817 28.7503C19.1807 27.9243 18.9797 27.1109 18.5959 26.3796C18.2157 25.5403 17.3455 24.8482 16.4342 24.9818C15.1564 25.1703 14.6083 26.6948 14.4747 27.9897C14.0224 32.2754 15.2318 36.5543 16.7631 40.6002C17.5853 42.7688 18.5651 44.9853 20.3431 46.4755C21.9807 47.8458 24.1526 48.4693 26.2869 48.5618C30.0456 48.709 33.7117 47.3742 36.4959 44.8448C39.2331 42.3303 40.7748 39.5485 40.9015 35.8349Z" stroke="white" stroke-width="2" stroke-linecap="round" stroke-linejoin="round"/>
</svg>
