<svg width="51" height="50" viewBox="0 0 51 50" fill="none" xmlns="http://www.w3.org/2000/svg">
<path d="M4.40356 41.6667V39.5833C4.40356 35.7156 5.94002 32.0063 8.67492 29.2714C11.4098 26.5365 15.1192 25 18.9869 25V25" stroke="white" stroke-width="2" stroke-linecap="round" stroke-linejoin="round"/>
<path d="M33.1618 25.6533C33.4777 25.3066 33.8625 25.0296 34.2915 24.8401C34.7206 24.6506 35.1844 24.5527 35.6535 24.5527C36.1225 24.5527 36.5864 24.6506 37.0154 24.8401C37.4445 25.0296 37.8292 25.3066 38.1451 25.6533C38.8222 26.3971 39.791 26.7991 40.7951 26.7512C41.2639 26.7292 41.7321 26.8054 42.1697 26.9747C42.6073 27.1441 43.0047 27.403 43.3365 27.7348C43.6684 28.0666 43.9272 28.4641 44.0966 28.9017C44.266 29.3393 44.3421 29.8075 44.3201 30.2762C44.2722 31.2783 44.6743 32.2491 45.416 32.9262C46.8847 34.2637 46.8847 36.5721 45.416 37.9096C44.6743 38.5866 44.2722 39.5554 44.3201 40.5596C44.3421 41.0283 44.266 41.4965 44.0966 41.9341C43.9272 42.3717 43.6684 42.7691 43.3365 43.101C43.0047 43.4328 42.6073 43.6917 42.1697 43.861C41.7321 44.0304 41.2639 44.1065 40.7951 44.0846C40.3 44.0611 39.8059 44.1472 39.3478 44.3366C38.8898 44.526 38.4791 44.8141 38.1451 45.1804C37.8292 45.5271 37.4445 45.804 37.0154 45.9936C36.5864 46.1831 36.1225 46.281 35.6535 46.281C35.1844 46.281 34.7206 46.1831 34.2915 45.9936C33.8625 45.804 33.4777 45.5271 33.1618 45.1804C32.8278 44.8141 32.4172 44.526 31.9592 44.3366C31.5011 44.1472 31.0069 44.0611 30.5118 44.0846C30.0431 44.1065 29.5749 44.0304 29.1373 43.861C28.6997 43.6917 28.3022 43.4328 27.9704 43.101C27.6386 42.7691 27.3797 42.3717 27.2103 41.9341C27.041 41.4965 26.9648 41.0283 26.9868 40.5596C27.01 40.0643 26.9236 39.57 26.7338 39.1119C26.544 38.6539 26.2555 38.2433 25.8889 37.9096C25.5422 37.5937 25.2652 37.2089 25.0757 36.7798C24.8862 36.3508 24.7883 35.8869 24.7883 35.4179C24.7883 34.9489 24.8862 34.485 25.0757 34.0559C25.2652 33.6269 25.5422 33.2421 25.8889 32.9262C26.6326 32.2491 27.0347 31.2804 26.9868 30.2762C26.9648 29.8075 27.041 29.3393 27.2103 28.9017C27.3797 28.4641 27.6386 28.0666 27.9704 27.7348C28.3022 27.403 28.6997 27.1441 29.1373 26.9747C29.5749 26.8054 30.0431 26.7292 30.5118 26.7512C31.5139 26.7991 32.4847 26.3971 33.1618 25.6533V25.6533Z" stroke="white" stroke-width="2"/>
<path d="M18.9869 25.0007C21.197 25.0007 23.3167 24.1227 24.8795 22.5599C26.4423 20.9971 27.3202 18.8775 27.3202 16.6673C27.3202 14.4572 26.4423 12.3376 24.8795 10.7748C23.3167 9.21196 21.197 8.33398 18.9869 8.33398C16.7768 8.33398 14.6571 9.21196 13.0943 10.7748C11.5315 12.3376 10.6536 14.4572 10.6536 16.6673C10.6536 18.8775 11.5315 20.9971 13.0943 22.5599C14.6571 24.1227 16.7768 25.0007 18.9869 25.0007Z" stroke="white" stroke-width="2" stroke-linecap="round" stroke-linejoin="round"/>
<path d="M31.4868 35.1554L34.091 37.9456L39.2993 32.3652" stroke="white" stroke-width="2" stroke-linecap="round" stroke-linejoin="round"/>
</svg>
